PathFileType	4	(X/Y/Z)	..\data\2014050\dynamic\2014050_C4_04.trc
DataRate	CameraRate	NumFrames	NumMarkers	Units	OrigDataRate	OrigDataStartFrame	OrigNumFrames
100.000000	100.000000	4	52	mm	100.000000	82	165
Frame#	Time	L_IAS			L_IPS			R_IPS			R_IAS			L_FTC			L_FLE			L_FME			L_FAX			L_TTC			L_FAL			L_TAM			L_FCC			L_FM1			L_FM2			L_FM5			R_FTC			R_FLE			R_FME			R_FAX			R_TTC			R_FAL			R_TAM			R_FCC			R_FM1			R_FM2			R_FM5			CV7			TV10			SXS			SJN			L_SIA			L_SRS			L_SAA			L_SAE			L_HLE			L_HME			L_UOA			L_RSP			L_UHE			L_HM2			L_HM5			R_SIA			R_SRS			R_SAA			R_SAE			R_HLE			R_HME			R_UOA			R_RSP			R_UHE			R_HM2			R_HM5			
		X1	Y1	Z1	X2	Y2	Z2	X3	Y3	Z3	X4	Y4	Z4	X5	Y5	Z5	X6	Y6	Z6	X7	Y7	Z7	X8	Y8	Z8	X9	Y9	Z9	X10	Y10	Z10	X11	Y11	Z11	X12	Y12	Z12	X13	Y13	Z13	X14	Y14	Z14	X15	Y15	Z15	X16	Y16	Z16	X17	Y17	Z17	X18	Y18	Z18	X19	Y19	Z19	X20	Y20	Z20	X21	Y21	Z21	X22	Y22	Z22	X23	Y23	Z23	X24	Y24	Z24	X25	Y25	Z25	X26	Y26	Z26	X27	Y27	Z27	X28	Y28	Z28	X29	Y29	Z29	X30	Y30	Z30	X31	Y31	Z31	X32	Y32	Z32	X33	Y33	Z33	X34	Y34	Z34	X35	Y35	Z35	X36	Y36	Z36	X37	Y37	Z37	X38	Y38	Z38	X39	Y39	Z39	X40	Y40	Z40	X41	Y41	Z41	X42	Y42	Z42	X43	Y43	Z43	X44	Y44	Z44	X45	Y45	Z45	X46	Y46	Z46	X47	Y47	Z47	X48	Y48	Z48	X49	Y49	Z49	X50	Y50	Z50	X51	Y51	Z51	X52	Y52	Z52	

83	0.8200000000000001	882.6109619140627	897.9253540039065	-316.7503662109376	683.4011230468751	920.1512451171877	-264.7334899902344	684.5926513671876	911.815856933594	-157.2753448486328	881.0943603515627	899.5347900390627	-107.1755294799805	817.1387939453127	814.4072265625002	-406.7738647460939	823.721130371094	429.1437377929689	-345.1054382324219	840.8462524414065	430.1156311035157	-210.8791046142579	796.7383422851565	369.1346130371094	-343.2636718750001	856.203308105469	360.8994750976563	-290.6682434082032	772.1709594726565	61.68993759155275	-291.6577758789063	790.4007568359377	72.59256744384767	-206.4860534667969	724.8099975585939	16.47698593139649	-237.9366302490235	896.8560180664065	19.00090217590332	-209.769760131836	908.2380981445315	33.65814590454102	-264.5418701171876	866.443298339844	11.02168273925781	-316.8425903320313	814.7488403320315	790.290466308594	-17.95243453979493	896.000671386719	445.376190185547	-53.24813842773439	924.277526855469	428.4558715820314	-187.3520202636719	846.852478027344	414.6502380371095	-52.02987670898439	912.820495605469	369.1067810058594	-95.27740478515626	642.0280761718751	165.9391326904297	-80.83001708984376	677.6516113281251	155.0430450439453	-163.8687438964844	588.0078735351564	152.8774719238282	-133.678955078125	722.3873901367189	37.52069854736329	-145.9670104980469	735.1208496093751	60.56493759155275	-93.91848754882814	694.5836181640626	69.24047088623048	-50.38381195068361	763.9069213867189	1390.035766601563	-219.6114807128907	679.2112426757814	1168.912109375	-218.0047760009766	898.7837524414065	1065.089965820313	-209.5533905029297	873.3045043945315	1295.115966796875	-217.8002471923829	676.0339965820314	1210.41064453125	-304.9523010253907	716.2006835937501	1323.126831054688	-311.4603576660157	765.8716430664064	1331.791137695313	-375.9452819824219	813.3882446289065	1330.504760742188	-387.8489379882814	785.4080200195315	1036.961181640625	-469.2999267578126	746.7122802734376	1015.046997070313	-396.1922912597657	752.4235229492189	1000.976867675781	-449.3829345703126	876.9649047851565	815.617858886719	-439.622772216797	837.7769165039065	821.2485961914065	-499.548065185547	904.6864013671877	739.4725952148439	-441.5415954589845	833.5376586914065	751.9571533203126	-505.223114013672	669.7312011718751	1223.564697265625	-140.3561553955078	716.1450805664064	1328.406494140625	-135.3205718994141	758.0044555664064	1336.400146484375	-69.08470916748048	833.1894531250002	1334.93359375	-40.12736892700196	729.2471313476564	1048.553100585938	27.89258384704591	699.8162231445314	1036.437133789063	-44.83491134643555	695.1812133789064	1016.618957519531	4.502156734466554	807.8457031250002	826.6340332031252	23.41511535644532	742.2116088867189	826.326354980469	53.48267364501955	829.403015136719	746.4992675781251	27.24440574645997	736.9405517578126	749.1962280273439	52.36933898925783	
84	0.8300000000000001	893.108825683594	897.8237915039065	-317.5019531250001	694.0526123046876	920.7941894531252	-265.4771423339844	695.0441284179689	913.0450439453127	-157.9127655029297	891.6892700195315	900.6614379882815	-108.2733688354492	828.092712402344	814.118835449219	-407.3154907226564	826.4483642578127	429.1327514648439	-345.0282592773438	843.606872558594	429.6755676269532	-210.734115600586	798.8081665039065	369.4262695312501	-343.0968322753907	858.118347167969	360.6633911132813	-290.5500183105469	772.4163208007815	61.96414184570314	-291.5249938964844	790.9267578125002	72.88304901123048	-206.5014801025391	724.9755859375001	16.95275115966797	-237.8173828125001	897.029968261719	19.00773429870606	-209.9111328125001	908.4967041015627	33.57824707031251	-264.6968994140626	866.4752197265627	10.96605587005615	-316.9317016601563	826.1477661132815	791.3261718750002	-18.44802284240723	914.3710937500002	447.6805725097657	-54.97241592407228	942.7083740234377	432.0742187500001	-189.1300201416016	865.7612915039065	415.0988769531251	-53.94075775146486	933.6479492187502	372.2431945800782	-97.39728546142581	672.3686523437501	156.3371124267578	-82.41054534912111	708.3304443359376	147.6876678466797	-165.6294403076172	618.3955688476564	140.4549713134766	-134.9493713378907	760.4361572265626	33.7600440979004	-147.8249969482422	771.9147949218752	58.01735305786134	-96.01332092285159	730.8622436523439	63.47203826904298	-52.38597106933595	774.9927368164065	1390.5537109375	-219.8563079833985	690.1618652343751	1169.571166992188	-219.1327667236329	909.419616699219	1065.753784179688	-209.9863891601563	884.252380371094	1295.6337890625	-217.7637786865235	687.2359619140626	1211.478881835938	-306.2361145019532	727.5542602539064	1324.078125	-312.0344238281251	777.3101196289065	1332.94873046875	-376.2275085449219	824.8591918945315	1331.864990234375	-387.9465942382814	801.9786376953127	1038.234375	-471.068084716797	764.0257568359376	1015.165649414063	-397.8901672363282	770.106384277344	1001.100402832031	-451.2708740234376	901.2191162109377	820.0692138671877	-441.6229248046876	861.2241821289065	824.1525878906252	-501.0532836914064	932.4517211914065	745.3906860351564	-444.5404663085939	859.8345336914065	754.9345092773439	-506.9767456054689	680.3176879882814	1223.999389648438	-141.6972808837891	726.9869384765626	1328.654541015625	-136.0894622802735	768.4597167968752	1336.502807617188	-69.88652801513673	844.7749633789065	1335.044555664063	-38.26018524169923	736.0817871093751	1049.397338867188	26.2641773223877	706.7758178710939	1038.1083984375	-46.53823852539063	701.6281738281251	1018.680541992188	2.773347854614258	807.240173339844	825.1468505859377	24.01332664489747	741.4992065429689	827.4364013671877	53.5892906188965	825.456481933594	743.9029541015626	28.43449401855469	733.0735473632814	750.6627197265626	52.91138458251955	
85	0.84	903.5899047851565	897.493347167969	-318.2706909179688	704.6571044921876	921.1917724609377	-266.1100158691407	705.4645385742189	913.9929809570315	-158.4185333251953	902.2526855468752	901.4572753906252	-109.2973403930664	838.9182128906252	813.6604614257815	-407.8488159179689	829.2065429687502	429.1089477539064	-344.9042663574219	846.5587158203127	429.2368774414064	-210.5404357910157	800.885925292969	369.7196960449219	-342.8863525390626	860.1184082031252	360.4338073730469	-290.4465942382813	772.7215576171877	62.2446746826172	-291.3074951171876	791.458679199219	73.16835784912111	-206.3981475830079	725.1754150390626	17.44664192199707	-237.5983581542969	897.2686157226565	19.03597259521485	-210.0621185302735	908.8011474609377	33.52235412597657	-264.8565673828126	866.516052246094	10.94203662872315	-317.0149536132813	837.6733398437502	792.1694946289065	-18.82079696655274	932.1276855468752	449.7164611816407	-56.5907440185547	960.5936279296877	435.4854431152345	-190.8556518554688	884.2662353515627	415.0406494140626	-55.64453125000001	953.984558105469	375.2098388671876	-99.50154113769534	703.5619506835939	146.2882537841797	-84.00691223144533	739.7998046875001	140.000244140625	-167.4282531738282	649.9266357421876	127.6284637451172	-136.2937927246094	799.0840454101565	30.07051277160645	-149.6175842285157	809.0732421875002	55.3099708557129	-98.00327301025393	767.6128540039064	57.66200256347658	-54.326961517334	786.0979003906252	1390.874145507813	-220.0819396972657	701.0968017578126	1170.034057617188	-220.1821441650391	920.076354980469	1066.190063476563	-210.5187072753907	895.2031250000002	1295.943481445313	-217.7183532714844	698.4760742187501	1212.305297851563	-307.4453430175782	738.9270019531251	1324.800903320313	-312.5908813476563	788.7659301757815	1333.882690429688	-376.5111694335938	836.3575439453127	1332.997680664063	-388.0388793945314	818.3693847656252	1039.380737304688	-472.8269958496095	781.1611938476565	1015.229797363281	-399.5911865234376	787.647644042969	1001.126586914063	-453.1483154296876	925.3145751953127	824.7705688476565	-443.4135742187501	884.539245605469	827.1121826171877	-502.3128662109376	959.9825439453127	751.7374877929689	-447.164520263672	885.9963989257815	758.0444946289064	-508.304901123047	690.9849853515626	1224.255249023438	-142.9161682128907	737.8425903320314	1328.742553710938	-136.7952423095703	779.0067138671877	1336.458740234375	-70.56395721435548	856.4543457031252	1335.001220703125	-36.43727111816407	743.1399536132814	1050.105102539063	24.73109245300294	713.7886352539064	1039.643188476563	-48.1730194091797	708.2868652343751	1020.59814453125	1.123437762260437	806.8648071289065	823.8278808593752	24.55632781982423	741.1211547851564	828.6938476562502	53.68348312377931	821.679626464844	741.6022949218751	29.51540184020997	729.5390625000001	752.4281616210939	53.38214492797853	
86	0.85	914.0487060546877	896.9407958984377	-319.0536499023438	715.2123413085939	921.3382568359377	-266.6244506835938	715.8610839843751	914.6380004882815	-158.7993316650391	912.7989501953127	901.9095458984377	-110.2166748046875	849.536315917969	813.0437622070315	-408.3598632812501	832.0217895507815	429.0674743652345	-344.7359313964844	849.685974121094	428.8052062988282	-210.2978210449219	802.9960937500002	370.0041809082032	-342.6332092285157	862.221374511719	360.1961364746094	-290.3534240722657	773.0781860351565	62.5209083557129	-290.9981384277344	791.984802246094	73.43928527832033	-206.1629028320313	725.4077758789064	17.95011520385743	-237.2597808837891	897.564880371094	19.08200454711914	-210.2178039550782	909.1357421875002	33.48301315307618	-265.0169372558594	866.5585937500002	10.9440450668335	-317.0812988281251	849.2881469726565	792.8308715820315	-19.08518218994141	949.2401123046877	451.4446105957032	-58.08983612060548	977.862976074219	438.6200561523439	-192.5065460205079	902.3635253906252	414.4778442382814	-57.1404495239258	973.7786865234377	377.9720153808594	-101.5487518310547	735.6187133789064	136.0363311767578	-85.60748291015626	772.0463867187502	132.1871948242188	-169.2434234619141	682.6296997070314	114.6266021728516	-137.7080230712891	838.2851562500002	26.63363456726075	-151.2946166992188	846.5723266601565	52.63953781127931	-99.83367156982425	804.829528808594	52.0442352294922	-56.15503692626955	797.2274169921877	1390.993530273438	-220.2845764160157	712.0192260742189	1170.297607421875	-221.1435852050782	930.7593383789065	1066.378540039063	-211.1262512207032	906.1655883789065	1296.0361328125	-217.6675109863282	709.7578735351564	1212.881103515625	-308.5700988769532	750.3213500976564	1325.289184570313	-313.1293945312501	800.2558593750002	1334.575317382813	-376.7963562011719	847.9003906250002	1333.878784179688	-388.119842529297	834.5935668945315	1040.380737304688	-474.5718383789064	798.100280761719	1015.208190917969	-401.3088989257814	805.0479125976565	1001.040405273438	-455.0161437988282	949.1853637695315	829.6823730468752	-444.9884033203126	907.6896972656252	830.1013793945315	-503.3316955566407	987.189880371094	758.4530639648439	-449.3912048339845	911.976501464844	761.2534790039064	-509.2091369628907	701.7349853515626	1224.322509765625	-144.0098266601563	748.7156372070314	1328.66943359375	-137.4307250976563	789.6489257812502	1336.282592773438	-71.08825683593751	868.2696533203127	1334.770751953125	-34.6485939025879	750.4222412109376	1050.659057617188	23.298246383667	720.8701171875001	1041.015625	-49.73695755004884	715.1559448242189	1022.346801757813	-0.4492030143737794	806.7774047851565	822.6528930664065	25.03446006774903	741.1344604492189	830.0570068359377	53.75679397583009	818.151306152344	739.5881347656251	30.47551345825196	726.4226074218751	754.4548339843751	53.78020095825197	
